# File created by Blade
# Date/Time:  Thu Jan 22 19:18:16 2015
# Frame Rate: 120.000 fps
#------------------------------------------------------
:FULLY-SPECIFIED
:DEGREES
1301
root 1.168504 32.227495 -6.277715 39.767809 -0.684126 -2.842498
RightUpLeg -46.275872 -8.496043 -1.662633
RightLeg 5.332118 -0.000000 -0.000000
RightFoot -2.505512 -11.991074 5.596436
RightToeBase 6.944933 -0.000000 -0.000000
LeftUpLeg -46.768977 10.176381 18.763454
LeftLeg 12.687531 -0.000000 -0.000000
LeftFoot -7.369412 -1.211205 -25.143988
LeftToeBase 7.401124 -0.000000 -0.000000
Spine 17.447490 3.483369 -13.400255
RightShoulder -0.583518 1.665955 -25.629770
RightArm 52.387183 -32.217591 56.745041
RightForeArm -13.926733 0.000000 38.562843
RightHand 15.415674 -0.000000 3.380658
RightHandThumb1 -24.326973 -0.000000 -32.862282
LeftShoulder -12.884787 -0.727726 18.515517
LeftArm 18.955040 13.077707 -74.371035
LeftForeArm 13.652417 -0.000000 48.527272
LeftHand -8.719231 -0.000000 -3.862491
LeftHandThumb1 -26.253704 0.000000 33.147579
Head -47.455163 -4.892600 -7.221231
1302
root 1.238402 32.241972 -6.181072 38.974088 -1.310729 -2.323058
RightUpLeg -45.583441 -8.647558 -2.371445
RightLeg 5.608522 -0.000000 -0.000000
RightFoot -2.805159 -11.914472 5.589951
RightToeBase 6.965612 -0.000000 -0.000000
LeftUpLeg -45.503742 9.987422 17.941626
LeftLeg 12.191126 -0.000000 -0.000000
LeftFoot -7.319534 -1.117343 -24.934600
LeftToeBase 7.288104 -0.000000 -0.000000
Spine 17.560397 3.706554 -13.900210
RightShoulder -0.894674 1.186310 -25.138734
RightArm 51.892776 -32.216629 56.940382
RightForeArm -13.738262 -0.000000 38.703219
RightHand 15.420222 -0.000000 3.385873
RightHandThumb1 -24.326973 -0.000000 -32.862282
LeftShoulder -13.089286 -0.423768 18.563530
LeftArm 18.715158 13.147689 -74.589244
LeftForeArm 13.910774 -0.000000 48.868795
LeftHand -8.745394 -0.000000 -3.969518
LeftHandThumb1 -26.253704 0.000000 33.147579
Head -47.634668 -4.687153 -6.958556
1303
root 1.283948 32.249996 -6.102899 38.400107 -1.658512 -2.040116
RightUpLeg -45.071531 -8.764119 -2.705194
RightLeg 5.827459 -0.000000 -0.000000
RightFoot -3.106435 -11.994364 5.673851
RightToeBase 7.104430 -0.000000 -0.000000
LeftUpLeg -44.638389 9.884260 17.489279
LeftLeg 11.931365 -0.000000 -0.000000
LeftFoot -7.302415 -1.191269 -24.835251
LeftToeBase 7.411952 -0.000000 -0.000000
Spine 17.389420 3.715246 -13.958920
RightShoulder -1.121046 0.640996 -24.860704
RightArm 51.354620 -32.191312 57.272919
RightForeArm -13.526607 0.000000 38.875259
RightHand 15.443062 -0.000000 3.353104
RightHandThumb1 -24.326973 -0.000000 -32.862282
LeftShoulder -13.311050 -0.042908 18.508508
LeftArm 18.386590 13.194884 -74.762801
LeftForeArm 13.945965 -0.000000 49.314417
LeftHand -8.736019 -0.000000 -4.083654
LeftHandThumb1 -26.253704 0.000000 33.147579
Head -47.624126 -4.474442 -6.862387
1304
root 1.319559 32.253970 -6.028563 37.955757 -1.896181 -1.884562
RightUpLeg -44.679482 -8.888706 -2.836809
RightLeg 6.051207 -0.000000 -0.000000
RightFoot -3.350891 -12.063482 5.672458
RightToeBase 7.213535 -0.000000 -0.000000
LeftUpLeg -43.963919 9.858599 17.193939
LeftLeg 11.774725 -0.000000 -0.000000
LeftFoot -7.364767 -1.331047 -24.838558
LeftToeBase 7.320606 -0.000000 -0.000000
Spine 17.037769 3.731030 -13.822725
RightShoulder -1.383120 0.196686 -24.592211
RightArm 50.614334 -32.261704 57.657891
RightForeArm -13.238110 0.000000 39.139122
RightHand 15.239255 -0.000000 3.025732
RightHandThumb1 -24.326973 -0.000000 -32.862282
LeftShoulder -13.558223 0.205283 18.501656
LeftArm 17.965689 13.379831 -74.971381
LeftForeArm 14.069489 -0.000000 49.670965
LeftHand -8.735126 -0.000000 -4.265438
LeftHandThumb1 -26.253704 0.000000 33.147579
Head -47.537628 -4.324096 -6.709280
1305
root 1.358497 32.256704 -5.957128 37.543701 -2.045299 -1.701288
RightUpLeg -44.289086 -9.124534 -2.926502
RightLeg 6.234046 -0.000000 -0.000000
RightFoot -3.569720 -12.155766 5.646849
RightToeBase 7.164620 -0.000000 -0.000000
LeftUpLeg -43.369252 9.761676 16.913063
LeftLeg 11.623511 -0.000000 -0.000000
LeftFoot -7.400636 -1.445620 -24.798643
LeftToeBase 7.247247 -0.000000 -0.000000
Spine 16.660437 3.624290 -13.595747
RightShoulder -1.696367 -0.386891 -24.384830
RightArm 50.039372 -32.241550 58.024704
RightForeArm -13.072900 -0.000000 39.329149
RightHand 15.371375 -0.000000 2.994306
RightHandThumb1 -24.326973 -0.000000 -32.862282
LeftShoulder -13.775499 0.633918 18.371826
LeftArm 17.647088 13.467606 -75.099764
LeftForeArm 14.188848 -0.000000 50.140443
LeftHand -8.774002 -0.000000 -4.522360
LeftHandThumb1 -26.253704 0.000000 33.147579
Head -47.431535 -4.135519 -6.698894
1306
root 1.396599 32.258869 -5.882392 37.168173 -2.222837 -1.486517
RightUpLeg -43.982494 -9.428406 -3.004863
RightLeg 6.482943 -0.000000 -0.000000
RightFoot -3.856847 -12.147382 5.744361
RightToeBase 7.120367 -0.000000 -0.000000
LeftUpLeg -42.781923 9.651000 16.601576
LeftLeg 11.444544 -0.000000 -0.000000
LeftFoot -7.446591 -1.507959 -24.760907
LeftToeBase 7.242411 -0.000000 -0.000000
Spine 16.207348 3.424228 -13.458567
RightShoulder -1.892877 -0.890896 -24.182066
RightArm 49.289267 -32.224701 58.550242
RightForeArm -12.984586 -0.000000 39.551277
RightHand 15.133879 -0.000000 2.693111
RightHandThumb1 -24.326973 -0.000000 -32.862282
LeftShoulder -14.100767 0.968459 18.273755
LeftArm 17.209407 13.629668 -75.184145
LeftForeArm 14.277601 -0.000000 50.580216
LeftHand -8.766004 -0.000000 -4.694824
LeftHandThumb1 -26.253704 0.000000 33.147579
Head -47.271432 -3.855560 -6.735352
1307
root 1.427432 32.260419 -5.807815 36.749694 -2.383698 -1.295984
RightUpLeg -43.568526 -9.632709 -3.144434
RightLeg 6.608706 -0.000000 -0.000000
RightFoot -4.129672 -12.272104 5.954777
RightToeBase 7.239929 -0.000000 -0.000000
LeftUpLeg -42.180471 9.582146 16.320429
LeftLeg 11.315896 -0.000000 -0.000000
LeftFoot -7.467804 -1.653805 -24.744465
LeftToeBase 7.168110 -0.000000 -0.000000
Spine 15.807816 3.332871 -13.291658
RightShoulder -2.228602 -1.526350 -23.898220
RightArm 48.684312 -32.097358 58.959693
RightForeArm -12.991646 -0.000000 39.849678
RightHand 15.019763 -0.000000 2.808655
RightHandThumb1 -24.326973 -0.000000 -32.862282
LeftShoulder -14.372610 1.375059 18.196193
LeftArm 16.919113 13.790879 -75.231953
LeftForeArm 14.377967 -0.000000 50.982878
LeftHand -8.816195 -0.000000 -4.891873
LeftHandThumb1 -26.253704 0.000000 33.147579
Head -47.113208 -3.727290 -6.590034
1308
root 1.457677 32.260420 -5.730422 36.296865 -2.573487 -1.092687
RightUpLeg -43.151417 -9.871146 -3.290785
RightLeg 6.796405 -0.000000 -0.000000
RightFoot -4.429718 -12.244317 6.119698
RightToeBase 7.314943 -0.000000 -0.000000
LeftUpLeg -41.531811 9.526673 16.019119
LeftLeg 11.185692 -0.000000 -0.000000
LeftFoot -7.469531 -1.813850 -24.752601
LeftToeBase 7.228255 -0.000000 -0.000000
Spine 15.424450 3.277106 -13.153096
RightShoulder -2.539292 -2.051697 -23.657749
RightArm 47.960782 -32.068582 59.372442
RightForeArm -12.889660 -0.000000 40.174773
RightHand 14.875385 -0.000000 2.656498
RightHandThumb1 -24.326973 -0.000000 -32.862282
LeftShoulder -14.618342 1.690669 18.159257
LeftArm 16.529293 13.915269 -75.288581
LeftForeArm 14.328197 -0.000000 51.408961
LeftHand -8.859862 -0.000000 -5.142123
LeftHandThumb1 -26.253704 0.000000 33.147579
Head -46.915086 -3.566960 -6.488062
1309
root 1.488068 32.259446 -5.648490 35.832765 -2.735905 -0.895766
RightUpLeg -42.732238 -10.219413 -3.358405
RightLeg 6.994382 -0.000000 -0.000000
RightFoot -4.718591 -12.067440 6.271013
RightToeBase 7.160319 -0.000000 -0.000000
LeftUpLeg -40.856005 9.468085 15.723206
LeftLeg 11.021701 -0.000000 -0.000000
LeftFoot -7.523701 -1.950334 -24.815478
LeftToeBase 7.220686 -0.000000 -0.000000
Spine 15.046617 3.240552 -12.988152
RightShoulder -2.888498 -2.631039 -23.377924
RightArm 47.299599 -31.995241 59.659681
RightForeArm -12.603450 -0.000000 40.504080
RightHand 14.890653 -0.000000 2.648969
RightHandThumb1 -24.326973 -0.000000 -32.862282
LeftShoulder -14.833885 2.077313 18.093072
LeftArm 16.201559 14.040157 -75.310592
LeftForeArm 14.533261 -0.000000 51.847685
LeftHand -8.882931 -0.000000 -5.423413
LeftHandThumb1 -26.253704 0.000000 33.147579
Head -46.732012 -3.394792 -6.414869
1310
root 1.507943 32.259853 -5.573532 35.442231 -2.942035 -0.723789
RightUpLeg -42.351556 -10.288620 -3.622082
RightLeg 7.181657 -0.000000 -0.000000
RightFoot -5.026450 -12.070407 6.620778
RightToeBase 7.416667 -0.000000 -0.000000
LeftUpLeg -40.267883 9.466006 15.460582
LeftLeg 10.922797 -0.000000 -0.000000
LeftFoot -7.533854 -2.095446 -24.859988
LeftToeBase 7.147825 -0.000000 -0.000000
Spine 14.550504 3.207685 -12.863598
RightShoulder -3.217218 -3.361158 -23.094447
RightArm 46.864558 -31.921669 59.758430
RightForeArm -12.336058 -0.000000 40.878313
RightHand 14.740234 0.000000 2.413078
RightHandThumb1 -24.326973 -0.000000 -32.862282
LeftShoulder -15.061564 2.438964 18.068972
LeftArm 15.805864 14.158596 -75.290307
LeftForeArm 14.662650 -0.000000 52.311348
LeftHand -8.917045 -0.000000 -5.485331
LeftHandThumb1 -26.253704 0.000000 33.147579
Head -46.451688 -3.217522 -6.308485
1311
root 1.536838 32.258398 -5.483513 34.899496 -3.050965 -0.497834
RightUpLeg -41.816328 -10.651755 -3.782085
RightLeg 7.400652 -0.000000 -0.000000
RightFoot -5.354843 -11.786140 6.801968
RightToeBase 7.418335 -0.000000 -0.000000
LeftUpLeg -39.535191 9.260006 15.244778
LeftLeg 10.799143 -0.000000 -0.000000
LeftFoot -7.578378 -2.164902 -24.881963
LeftToeBase 7.015962 -0.000000 -0.000000
Spine 14.262740 3.076962 -12.672222
RightShoulder -3.555735 -3.997378 -22.826923
RightArm 46.234696 -31.741690 60.035021
RightForeArm -12.258495 -0.000000 41.282840
RightHand 14.786000 -0.000000 2.539752
RightHandThumb1 -24.326973 -0.000000 -32.862282
LeftShoulder -15.329999 2.696153 18.004289
LeftArm 15.341314 14.316569 -75.255056
LeftForeArm 14.747508 -0.000000 52.728122
LeftHand -8.871864 -0.000000 -5.531617
LeftHandThumb1 -26.253704 0.000000 33.147579
Head -46.290135 -3.073090 -6.251932
1312
root 1.555261 32.257421 -5.402214 34.492839 -3.192856 -0.353054
RightUpLeg -41.362181 -10.692614 -4.077947
RightLeg 7.558891 -0.000000 -0.000000
RightFoot -5.665844 -11.723167 7.129900
RightToeBase 7.541626 -0.000000 -0.000000
LeftUpLeg -38.953221 9.172435 15.084226
LeftLeg 10.755698 -0.000000 -0.000000
LeftFoot -7.656155 -2.285137 -24.966553
LeftToeBase 7.230343 -0.000000 -0.000000
Spine 13.778589 3.016157 -12.462206
RightShoulder -3.889330 -4.562787 -22.590571
RightArm 45.520594 -31.667961 60.356756
RightForeArm -12.138542 -0.000000 41.664128
RightHand 14.683235 -0.000000 2.348951
RightHandThumb1 -24.326973 -0.000000 -32.862282
LeftShoulder -15.603954 3.138010 17.950409
LeftArm 15.037295 14.412501 -75.189807
LeftForeArm 14.811116 -0.000000 53.148260
LeftHand -8.747187 -0.000000 -5.948297
LeftHandThumb1 -26.253704 0.000000 33.147579
Head -46.018343 -2.860951 -6.207291
1313
root 1.575016 32.255294 -5.311936 34.050116 -3.367314 -0.173103
RightUpLeg -40.934091 -10.883499 -4.312022
RightLeg 7.817345 -0.000000 -0.000000
RightFoot -5.989221 -11.409240 7.429468
RightToeBase 7.439583 -0.000000 -0.000000
LeftUpLeg -38.311354 9.108375 14.851311
LeftLeg 10.689175 -0.000000 -0.000000
LeftFoot -7.734345 -2.377556 -25.019931
LeftToeBase 7.165421 -0.000000 -0.000000
Spine 13.309836 2.951386 -12.300434
RightShoulder -4.201764 -5.132314 -22.373635
RightArm 44.751702 -31.459310 60.874339
RightForeArm -12.230780 -0.000000 41.961622
RightHand 14.764775 0.000000 2.641924
RightHandThumb1 -24.326973 -0.000000 -32.862282
LeftShoulder -15.875942 3.534477 17.868662
LeftArm 14.645534 14.422112 -75.099733
LeftForeArm 14.907915 -0.000000 53.594600
LeftHand -8.724829 -0.000000 -6.312988
LeftHandThumb1 -26.253704 0.000000 33.147579
Head -45.750251 -2.688788 -6.201066
